<svg width="106" height="16" viewBox="0 0 106 16" fill="none" xmlns="http://www.w3.org/2000/svg">
<path opacity="0.6" d="M4.752 12.192C3.93067 12.192 3.216 12.0427 2.608 11.744C2 11.4453 1.53067 11.0293 1.2 10.496C0.869333 9.96267 0.704 9.344 0.704 8.64H2.112C2.112 9.07733 2.21333 9.48267 2.416 9.856C2.61867 10.2187 2.912 10.512 3.296 10.736C3.69067 10.9493 4.176 11.056 4.752 11.056C5.50933 11.056 6.096 10.8747 6.512 10.512C6.928 10.1493 7.136 9.696 7.136 9.152C7.136 8.704 7.04 8.34667 6.848 8.08C6.656 7.80267 6.39467 7.57867 6.064 7.408C5.744 7.23733 5.37067 7.088 4.944 6.96C4.528 6.832 4.09067 6.688 3.632 6.528C2.768 6.22933 2.128 5.86133 1.712 5.424C1.296 4.976 1.088 4.39467 1.088 3.68C1.07733 3.08267 1.216 2.55467 1.504 2.096C1.792 1.62667 2.19733 1.264 2.72 1.008C3.25333 0.741333 3.88267 0.608 4.608 0.608C5.32267 0.608 5.94133 0.741333 6.464 1.008C6.99733 1.27467 7.408 1.64267 7.696 2.112C7.99467 2.58133 8.14933 3.11467 8.16 3.712H6.752C6.752 3.40267 6.672 3.09867 6.512 2.8C6.352 2.49067 6.10667 2.24 5.776 2.048C5.456 1.856 5.05067 1.76 4.56 1.76C3.952 1.74933 3.45067 1.904 3.056 2.224C2.672 2.544 2.48 2.98667 2.48 3.552C2.48 4.032 2.61333 4.4 2.88 4.656C3.15733 4.912 3.54133 5.12533 4.032 5.296C4.52267 5.456 5.088 5.64267 5.728 5.856C6.26133 6.048 6.74133 6.272 7.168 6.528C7.59467 6.784 7.92533 7.11467 8.16 7.52C8.40533 7.92533 8.528 8.44267 8.528 9.072C8.528 9.60533 8.38933 10.112 8.112 10.592C7.83467 11.0613 7.41333 11.4453 6.848 11.744C6.29333 12.0427 5.59467 12.192 4.752 12.192ZM10.354 15.52V4.064H11.57L11.698 5.376C11.954 4.992 12.3167 4.64533 12.786 4.336C13.266 4.02667 13.874 3.872 14.61 3.872C15.3993 3.872 16.0873 4.05333 16.674 4.416C17.2607 4.77867 17.714 5.27467 18.034 5.904C18.3647 6.53333 18.53 7.248 18.53 8.048C18.53 8.848 18.3647 9.56267 18.034 10.192C17.714 10.8107 17.2553 11.3013 16.658 11.664C16.0713 12.016 15.3833 12.192 14.594 12.192C13.9433 12.192 13.362 12.0587 12.85 11.792C12.3487 11.5253 11.9647 11.152 11.698 10.672V15.52H10.354ZM14.45 11.024C14.9833 11.024 15.4527 10.9013 15.858 10.656C16.2633 10.4 16.5833 10.048 16.818 9.6C17.0527 9.152 17.17 8.62933 17.17 8.032C17.17 7.43467 17.0527 6.912 16.818 6.464C16.5833 6.016 16.2633 5.66933 15.858 5.424C15.4527 5.168 14.9833 5.04 14.45 5.04C13.9167 5.04 13.4473 5.168 13.042 5.424C12.6367 5.66933 12.3167 6.016 12.082 6.464C11.8473 6.912 11.73 7.43467 11.73 8.032C11.73 8.62933 11.8473 9.152 12.082 9.6C12.3167 10.048 12.6367 10.4 13.042 10.656C13.4473 10.9013 13.9167 11.024 14.45 11.024ZM24.0169 12.192C23.2702 12.192 22.5982 12.0213 22.0009 11.68C21.4035 11.3387 20.9289 10.8587 20.5769 10.24C20.2355 9.61067 20.0649 8.87467 20.0649 8.032C20.0649 7.18933 20.2409 6.45867 20.5929 5.84C20.9449 5.21067 21.4195 4.72533 22.0169 4.384C22.6249 4.04267 23.3022 3.872 24.0489 3.872C24.7955 3.872 25.4675 4.04267 26.0649 4.384C26.6622 4.72533 27.1315 5.21067 27.4729 5.84C27.8249 6.45867 28.0009 7.18933 28.0009 8.032C28.0009 8.87467 27.8249 9.61067 27.4729 10.24C27.1209 10.8587 26.6409 11.3387 26.0329 11.68C25.4355 12.0213 24.7635 12.192 24.0169 12.192ZM24.0169 11.04C24.4755 11.04 24.9022 10.928 25.2969 10.704C25.6915 10.48 26.0115 10.144 26.2569 9.696C26.5022 9.248 26.6249 8.69333 26.6249 8.032C26.6249 7.37067 26.5022 6.816 26.2569 6.368C26.0222 5.92 25.7075 5.584 25.3129 5.36C24.9182 5.136 24.4969 5.024 24.0489 5.024C23.5902 5.024 23.1635 5.136 22.7689 5.36C22.3742 5.584 22.0542 5.92 21.8089 6.368C21.5635 6.816 21.4409 7.37067 21.4409 8.032C21.4409 8.69333 21.5635 9.248 21.8089 9.696C22.0542 10.144 22.3689 10.48 22.7529 10.704C23.1475 10.928 23.5689 11.04 24.0169 11.04ZM29.8696 12V4.064H31.0856L31.1656 5.488C31.4216 4.98667 31.7896 4.592 32.2696 4.304C32.7496 4.016 33.2936 3.872 33.9016 3.872C34.8403 3.872 35.587 4.16 36.1416 4.736C36.707 5.30133 36.9896 6.176 36.9896 7.36V12H35.6456V7.504C35.6456 5.85067 34.963 5.024 33.5976 5.024C32.915 5.024 32.3443 5.27467 31.8856 5.776C31.4376 6.26667 31.2136 6.97067 31.2136 7.888V12H29.8696ZM42.0659 12.192C41.1165 12.192 40.3272 11.952 39.6979 11.472C39.0685 10.992 38.7005 10.3413 38.5939 9.52H39.9699C40.0552 9.936 40.2739 10.2987 40.6259 10.608C40.9885 10.9067 41.4739 11.056 42.0819 11.056C42.6472 11.056 43.0632 10.9387 43.3299 10.704C43.5965 10.4587 43.7299 10.1707 43.7299 9.84C43.7299 9.36 43.5539 9.04 43.2019 8.88C42.8605 8.72 42.3752 8.576 41.7459 8.448C41.3192 8.36267 40.8925 8.24 40.4659 8.08C40.0392 7.92 39.6819 7.696 39.3939 7.408C39.1059 7.10933 38.9619 6.72 38.9619 6.24C38.9619 5.54667 39.2179 4.98133 39.7299 4.544C40.2525 4.096 40.9565 3.872 41.8419 3.872C42.6845 3.872 43.3725 4.08533 43.9059 4.512C44.4499 4.928 44.7645 5.52533 44.8499 6.304H43.5219C43.4685 5.89867 43.2925 5.584 42.9939 5.36C42.7059 5.12533 42.3165 5.008 41.8259 5.008C41.3459 5.008 40.9725 5.10933 40.7059 5.312C40.4499 5.51467 40.3219 5.78133 40.3219 6.112C40.3219 6.432 40.4872 6.68267 40.8179 6.864C41.1592 7.04533 41.6179 7.2 42.1939 7.328C42.6845 7.43467 43.1485 7.568 43.5859 7.728C44.0339 7.87733 44.3965 8.10667 44.6739 8.416C44.9619 8.71467 45.1059 9.152 45.1059 9.728C45.1165 10.4427 44.8445 11.0347 44.2899 11.504C43.7459 11.9627 43.0045 12.192 42.0659 12.192ZM50.6419 12.192C49.8952 12.192 49.2232 12.0213 48.6259 11.68C48.0285 11.3387 47.5539 10.8587 47.2019 10.24C46.8605 9.61067 46.6899 8.87467 46.6899 8.032C46.6899 7.18933 46.8659 6.45867 47.2179 5.84C47.5699 5.21067 48.0445 4.72533 48.6419 4.384C49.2499 4.04267 49.9272 3.872 50.6739 3.872C51.4205 3.872 52.0925 4.04267 52.6899 4.384C53.2872 4.72533 53.7565 5.21067 54.0979 5.84C54.4499 6.45867 54.6259 7.18933 54.6259 8.032C54.6259 8.87467 54.4499 9.61067 54.0979 10.24C53.7459 10.8587 53.2659 11.3387 52.6579 11.68C52.0605 12.0213 51.3885 12.192 50.6419 12.192ZM50.6419 11.04C51.1005 11.04 51.5272 10.928 51.9219 10.704C52.3165 10.48 52.6365 10.144 52.8819 9.696C53.1272 9.248 53.2499 8.69333 53.2499 8.032C53.2499 7.37067 53.1272 6.816 52.8819 6.368C52.6472 5.92 52.3325 5.584 51.9379 5.36C51.5432 5.136 51.1219 5.024 50.6739 5.024C50.2152 5.024 49.7885 5.136 49.3939 5.36C48.9992 5.584 48.6792 5.92 48.4339 6.368C48.1885 6.816 48.0659 7.37067 48.0659 8.032C48.0659 8.69333 48.1885 9.248 48.4339 9.696C48.6792 10.144 48.9939 10.48 49.3779 10.704C49.7725 10.928 50.1939 11.04 50.6419 11.04ZM56.4946 12V4.064H57.7106L57.8226 5.584C58.068 5.06133 58.4413 4.64533 58.9426 4.336C59.444 4.02667 60.0626 3.872 60.7986 3.872V5.28H60.4306C59.9613 5.28 59.5293 5.36533 59.1346 5.536C58.74 5.696 58.4253 5.97333 58.1906 6.368C57.956 6.76267 57.8386 7.30667 57.8386 8V12H56.4946ZM65.5783 12.192C64.8209 12.192 64.1489 12.0213 63.5623 11.68C62.9756 11.328 62.5116 10.8427 62.1703 10.224C61.8396 9.60533 61.6743 8.87467 61.6743 8.032C61.6743 7.2 61.8396 6.47467 62.1703 5.856C62.5009 5.22667 62.9596 4.74133 63.5463 4.4C64.1436 4.048 64.8316 3.872 65.6102 3.872C66.3783 3.872 67.0396 4.048 67.5943 4.4C68.1596 4.74133 68.5916 5.19467 68.8903 5.76C69.1889 6.32533 69.3383 6.93333 69.3383 7.584C69.3383 7.70133 69.3329 7.81867 69.3223 7.936C69.3223 8.05333 69.3223 8.18667 69.3223 8.336H63.0023C63.0343 8.944 63.1729 9.45067 63.4183 9.856C63.6743 10.2507 63.9889 10.5493 64.3623 10.752C64.7463 10.9547 65.1516 11.056 65.5783 11.056C66.1329 11.056 66.5969 10.928 66.9703 10.672C67.3436 10.416 67.6156 10.0693 67.7863 9.632H69.1143C68.9009 10.368 68.4903 10.9813 67.8823 11.472C67.2849 11.952 66.5169 12.192 65.5783 12.192ZM65.5783 5.008C64.9383 5.008 64.3676 5.20533 63.8663 5.6C63.3756 5.984 63.0929 6.54933 63.0182 7.296H68.0103C67.9783 6.58133 67.7329 6.02133 67.2743 5.616C66.8156 5.21067 66.2503 5.008 65.5783 5.008ZM74.7196 12.192C73.9303 12.192 73.237 12.0107 72.6396 11.648C72.053 11.2853 71.5943 10.7893 71.2636 10.16C70.9436 9.53067 70.7836 8.816 70.7836 8.016C70.7836 7.216 70.949 6.50667 71.2796 5.888C71.6103 5.25867 72.069 4.768 72.6556 4.416C73.2423 4.05333 73.9356 3.872 74.7356 3.872C75.3863 3.872 75.9623 4.00533 76.4636 4.272C76.965 4.53867 77.3543 4.912 77.6316 5.392V0.48H78.9756V12H77.7596L77.6316 10.688C77.3756 11.072 77.0076 11.4187 76.5276 11.728C76.0476 12.0373 75.445 12.192 74.7196 12.192ZM74.8636 11.024C75.397 11.024 75.8663 10.9013 76.2716 10.656C76.6876 10.4 77.0076 10.048 77.2316 9.6C77.4663 9.152 77.5836 8.62933 77.5836 8.032C77.5836 7.43467 77.4663 6.912 77.2316 6.464C77.0076 6.016 76.6876 5.66933 76.2716 5.424C75.8663 5.168 75.397 5.04 74.8636 5.04C74.341 5.04 73.8716 5.168 73.4556 5.424C73.0503 5.66933 72.7303 6.016 72.4956 6.464C72.2716 6.912 72.1596 7.43467 72.1596 8.032C72.1596 8.62933 72.2716 9.152 72.4956 9.6C72.7303 10.048 73.0503 10.4 73.4556 10.656C73.8716 10.9013 74.341 11.024 74.8636 11.024ZM89.6409 12.192C88.9902 12.192 88.4089 12.0587 87.8969 11.792C87.3955 11.5253 87.0115 11.152 86.7449 10.672L86.6169 12H85.4009V0.48H86.7449V5.376C87.0009 4.992 87.3635 4.64533 87.8329 4.336C88.3129 4.02667 88.9209 3.872 89.6569 3.872C90.4462 3.872 91.1342 4.05333 91.7209 4.416C92.3075 4.77867 92.7609 5.27467 93.0809 5.904C93.4115 6.53333 93.5769 7.248 93.5769 8.048C93.5769 8.848 93.4115 9.56267 93.0809 10.192C92.7609 10.8107 92.3022 11.3013 91.7049 11.664C91.1182 12.016 90.4302 12.192 89.6409 12.192ZM89.4969 11.024C90.0302 11.024 90.4995 10.9013 90.9049 10.656C91.3102 10.4 91.6302 10.048 91.8649 9.6C92.0995 9.152 92.2169 8.62933 92.2169 8.032C92.2169 7.43467 92.0995 6.912 91.8649 6.464C91.6302 6.016 91.3102 5.66933 90.9049 5.424C90.4995 5.168 90.0302 5.04 89.4969 5.04C88.9635 5.04 88.4942 5.168 88.0889 5.424C87.6835 5.66933 87.3635 6.016 87.1289 6.464C86.8942 6.912 86.7769 7.43467 86.7769 8.032C86.7769 8.62933 86.8942 9.152 87.1289 9.6C87.3635 10.048 87.6835 10.4 88.0889 10.656C88.4942 10.9013 88.9635 11.024 89.4969 11.024ZM95.6711 15.52L97.6391 11.232H97.1751L94.0231 4.064H95.4791L98.1031 10.24L100.887 4.064H102.279L97.0791 15.52H95.6711ZM104.162 12.08C103.895 12.08 103.671 11.9947 103.49 11.824C103.319 11.6427 103.234 11.424 103.234 11.168C103.234 10.912 103.319 10.6987 103.49 10.528C103.671 10.3467 103.895 10.256 104.162 10.256C104.418 10.256 104.631 10.3467 104.802 10.528C104.983 10.6987 105.074 10.912 105.074 11.168C105.074 11.424 104.983 11.6427 104.802 11.824C104.631 11.9947 104.418 12.08 104.162 12.08ZM104.162 5.696C103.895 5.696 103.671 5.61067 103.49 5.44C103.319 5.25867 103.234 5.04 103.234 4.784C103.234 4.528 103.319 4.31467 103.49 4.144C103.671 3.96267 103.895 3.872 104.162 3.872C104.418 3.872 104.631 3.96267 104.802 4.144C104.983 4.31467 105.074 4.528 105.074 4.784C105.074 5.04 104.983 5.25867 104.802 5.44C104.631 5.61067 104.418 5.696 104.162 5.696Z" fill="#566272"/>
</svg>
